Patient4_TMGait_0pt6_01_right_15_EMG.mot
version=1
nRows=40
nColumns=33
inDegrees=no
endheader
time	1LAddLong	2LGlutMax	3LGlutMed	4LIliopsoas	5LSemiMemb	6LBicFemLong	7LRecFem	8LVastMed	9LVastLat	10LGasMed	11LTibAnt	12lTibPost	13LPeroneusLong	14LSol	15LExtDigLong	16LFlexDigLong	17RAddLong	18RGlutMax	19RGlutMed	20RIliopsoas	21RSemiMemb	22RBicFemLong	23RRecFem	24RVastMed	25RVastLat	26RGasMed	27RTibAnt	28RTibPost	29RPeroneusLong	30RSol	31RExtDigLong	32RFlexDigLong
18.933	0.014496	-0.018768	-0.16266	0.019684	0.037842	-0.078278	0.085449	-0.013275	0.10513	0.066071	0.003052	-0.059509	0.071716	-0.29785	-0.048065	0.12558	0.037231	-0.11566	0.15656	0.08316	-0.2301	0.019989	0.033264	-0.11444	0.002594	0.01236	0.11932	-0.000763	-0.20966	-0.02121	-0.009003	-0.001526
18.934	-0.000153	-0.008698	-0.049286	0.016632	0.031738	-0.058594	0.075684	0.007172	0.079651	0.13687	0.005798	-0.001678	-0.007935	-0.24139	-0.012665	0.29404	-0.000305	-0.11551	-0.044556	0.010223	-0.06897	0.050812	-0.015259	-0.089264	0.007477	0.019836	0.11261	-0.006866	0.38498	-0.031128	-0.003662	-0.00473
18.935	0.001984	-0.024719	0.10819	0.010986	0.021973	-0.063782	0.08255	0.006561	0.055084	0.067749	-0.010986	0.043488	-0.046234	-0.4129	-0.002136	0.1297	-0.027618	-0.076904	-0.29678	-0.030365	0.091553	0.090179	-0.023651	-0.070343	-0.006409	0.014343	0.072021	-0.006256	0.36179	-0.019989	-0.005035	0.00412
18.936	0.005646	-0.088959	0.001373	-0.006409	0.050354	-0.023804	0.079346	-0.000458	0.029602	-0.010223	-0.008087	0.036926	-0.13794	-1.0719	-0.00061	-0.008392	-0.021667	-0.068207	-0.11917	-0.04425	0.01297	0.024567	-0.003662	-0.079193	-0.001984	0.016785	0.094452	-0.011292	-0.005951	-0.032349	-0.005493	0.002899
18.937	0.000458	-0.06073	-0.069275	0.028381	0.067291	0.009308	0.037842	0.005188	0.014038	-0.19333	-0.013275	0.018311	-0.24506	-1.6483	-0.003357	0.19608	-0.018921	-0.045624	0.20767	-0.027466	0.11124	-0.033264	-0.020752	-0.091553	0.027008	0.015411	0.10742	-0.002594	-0.067291	-0.016632	-0.005341	0.002289
18.938	0.000458	-0.044861	-0.040894	0.008545	0.048523	0.048676	-0.017242	0.003815	0.00946	0.053864	-0.018005	-0.007019	-0.21637	-1.1601	0.021057	0.012817	-0.014496	-0.087585	0.52246	-0.048065	0.06134	-0.072479	-0.014038	-0.1033	0.022278	0.01297	0.091705	-0.005188	0.01358	-0.02594	-0.00351	-0.001526
18.939	-0.00412	-0.086212	-0.089874	0.023193	0.046082	0.076141	0.020905	0.009003	0.01709	0.36285	0	-0.014191	-0.11887	-0.19501	0.038605	0.18875	-0.003967	-0.13275	0.47882	-0.059204	0.018005	-0.058746	-0.014954	-0.082092	0.011292	0.013275	0.097198	-0.007477	0.044556	-0.015411	-0.004578	-0.005188
18.94	-0.000458	-0.054474	-0.14114	0.040894	0.039978	0.13016	0.038757	0.008087	0.020599	0.18326	-0.002136	-0.014191	-0.030975	0.42633	0.022125	0.070038	0.008392	-0.13138	0.30548	-0.059052	-0.03891	0.028076	-0.069275	-0.074158	0.000305	0.00946	0.11612	-0.005035	0.052032	0.006866	-0.007019	-0.006714
18.941	-0.010223	-0.010376	-0.1506	0.000458	0.02533	0.10361	0.03067	0.014191	-0.00946	-0.40039	0.001526	-0.014801	0.064087	0.62851	0.088959	-0.22827	0.013275	-0.16586	0.47028	-0.027618	-0.052032	0.083771	-0.040131	-0.056305	0.009003	0.003967	0.12344	-0.006256	-0.057678	-0.038757	-0.005188	-0.007629
18.942	0	0.020294	-0.062714	-0.004272	0.022125	0.025024	0.037842	0.014496	-0.004272	-0.39612	0.003357	-0.009918	0.12405	0.56427	0.16632	-0.32105	0.023346	-0.14114	0.16663	0.023956	0.045929	0.074615	0.007629	-0.066681	0.031433	0.002899	0.082245	-0.002289	0.047607	-0.047302	-0.003662	-0.005646
18.943	-0.007019	0.007935	-0.071411	0.00351	0.031433	-0.043488	0.077972	-0.005798	-0.031738	-0.21103	-0.026093	0.003662	0.032806	0.40482	0.083923	-0.068359	0.028381	-0.10483	-0.010071	0.079498	0.060425	0.054321	0.001068	-0.03952	0.018768	0.005188	0.096588	0.002747	0.14297	-0.048981	-0.004272	-0.001831
18.944	-0.009155	-0.020447	-0.081177	0.010529	0.028534	-0.05661	0.11169	-0.00412	-0.054016	-0.19257	-0.080872	-0.030518	-0.053864	0.3154	-0.03418	0.030365	0.032806	-0.11765	-0.26413	0.061035	-0.021362	0.065002	0.027771	-0.077667	0.011139	0.00412	0.088196	-0.005341	0.000458	-0.018311	-0.005798	-0.006561
18.945	0.00061	-0.022736	-0.047913	0.003357	0.032501	-0.071869	0.12726	-0.005798	-0.03418	-0.092316	-0.075073	-0.032349	-0.11215	0.40939	-0.0383	0.14557	0.062561	-0.16235	-0.35477	-0.015717	-0.096436	0.045013	-0.030365	-0.11475	0.03006	0.000458	0.083466	-0.006409	-0.22949	-0.0383	-0.005341	-0.003052
18.946	-0.001221	-0.032043	-0.063934	0.012054	0.034943	-0.082092	0.10025	-0.013885	-0.035095	0.004425	-0.045471	-0.041656	-0.17563	0.41931	-0.030975	0.0383	0.061798	-0.18463	-0.20111	-0.068054	-0.15778	0.055847	-0.030975	-0.041809	0.031281	-0.009766	0.094299	0.00351	-0.36163	-0.040741	-0.006561	-0.007172
18.947	0.019989	-0.029907	-0.12802	0.005493	0.043335	-0.020752	0.13763	-0.002594	-0.02655	0.32333	-0.003204	-0.045624	-0.17593	0.35019	-0.094604	-0.089111	0.09613	-0.18753	-0.083923	-0.047455	-0.26047	0.11154	0.002747	-0.10986	0.037994	-0.010376	0.043488	0.002594	0.066223	-0.076447	-0.005493	-0.006256
18.948	0.01709	0.01297	-0.04776	0.00061	0.04303	0.045013	0.23926	-0.003662	-0.058899	0.30334	0.008087	0.016174	-0.081329	0.2803	-0.11047	0.41016	0.11444	-0.18402	-0.10544	0.075836	-0.16541	0.033417	0.033264	-0.15884	0.01236	-0.015106	0.037384	-0.002594	0.4538	-0.10025	-0.007477	-0.002136
18.949	-0.002136	0.025482	0.005035	-0.00824	0.047607	0.068359	0.27374	0.006104	-0.020294	0.44418	0.029602	0.14221	0.072784	0.24475	-0.080109	-0.91187	0.059052	-0.16174	-0.082855	0.049744	0.090942	-0.025482	0.007477	-0.098419	0.006714	-0.007172	0.024872	-0.00412	0.76111	-0.094757	-0.006409	-0.001984
18.95	0.007935	0.021515	-0.074768	-0.002441	0.057373	0.03418	0.2681	0.001831	0.026855	0.32898	0.1152	-0.039368	0.027618	0.47852	0.035706	0.28656	-0.009613	-0.17319	-0.079956	-0.0354	0.0737	-0.12543	-0.037994	-0.054016	0.017395	-0.004578	0.041504	0.002594	0.39719	-0.050659	-0.001221	-0.005035
18.951	0.001221	0.079956	0.000305	-0.003357	0.069427	0.004883	0.24445	0.00885	0.057526	-0.10849	0.073853	-0.15213	0.010071	0.30655	0.056763	0.18723	-0.050354	-0.15427	0.029297	-0.046234	-0.062561	-0.17487	-0.015411	-0.035553	0.018463	-0.007324	0.065918	-0.002899	-0.055847	-0.016632	-0.005798	-0.003967
18.952	0.001068	0.079041	0.029449	0.016479	0.059052	-0.019379	0.14847	0.025635	0.08194	-0.24551	0.028534	0.008392	0.046082	-0.13245	-0.009308	0.017242	-0.043335	-0.16159	0.036316	-0.063477	-0.048828	-0.14099	0.001831	0.011444	0.02121	-0.014954	0.10407	-0.003662	-0.098419	0.03952	-0.004578	-0.005493
18.953	0.00824	0.079498	0.062561	0.002441	0.050507	-0.015106	-0.10635	0.039063	0.15137	-0.19394	0.004883	0.048828	0.002136	-0.32044	-0.048981	0.14572	-0.039063	-0.12955	-0.012512	0.030518	0.038452	-0.072327	0.013428	0.012817	0.03479	-0.012207	0.11444	0.002289	-0.22049	0.003204	-0.006866	0.000458
18.954	0.023346	0.069885	-0.013275	0.009613	0.039215	-0.039978	-0.19852	0.026855	0.22079	-0.084381	0.017548	0.014648	0.00061	-0.050812	-0.075378	-0.3212	-0.065765	-0.12848	-0.067596	0.099182	-0.022888	0.033722	-0.02655	0.018311	0.037842	-0.007324	0.14969	0.001831	-0.25879	-0.035858	-0.001831	-0.002136
18.955	0.008545	0.028839	0.000458	-0.002747	0.032501	-0.048218	-0.19852	0.001984	-0.029297	-0.089264	0.034485	-0.030975	0.084839	0.26657	-0.051727	0.2214	-0.06546	-0.075073	-0.15701	0.088043	0.055542	0.098419	-0.003815	-0.013123	0.050201	-0.012512	0.11581	0.011902	-0.17425	-0.061798	-0.003815	-0.000458
18.956	0.026093	0.002747	-0.051422	0.006714	0.015411	-0.011749	-0.13748	0.028076	-0.046692	-0.1416	0.079346	-0.015106	0.081329	0.33829	-0.012665	0.40878	-0.055389	-0.028992	-0.10361	0.02655	-0.000916	0.016632	-0.014648	0.007172	0.031738	-0.007629	-0.037537	0.003662	-0.085297	-0.094299	-0.004883	0.000153
18.957	0.028992	-0.034027	-0.09079	0.006409	0.021515	-0.011597	0.043182	-0.0177	-0.14664	-0.040588	-0.17197	-0.001373	0.11002	0.1683	-0.035095	0.088348	-0.048828	-0.055237	-0.043945	0.012512	-0.002136	-0.076141	-0.038452	0.014191	0.034027	-0.015106	-0.1004	0.002899	0.079193	-0.00946	-0.007935	0.000153
18.958	0.016479	-0.083466	-0.10727	0.025787	0.029907	0.020752	0.15717	-0.023651	-0.20996	0.25284	-0.031128	-0.019226	0.007782	0.18463	-0.019836	0.010529	-0.020599	-0.04364	-0.060577	0.036316	0.029144	-0.081024	-0.009918	0.030365	0.004578	-0.012207	-0.044861	0.005798	0.20386	0.01297	-0.00885	0
18.959	-0.010681	-0.085144	-0.031738	0.02533	0.053101	0.044098	0.18799	-0.024261	-0.13031	0.44937	0.060425	-0.037994	-0.06546	-0.28275	-0.055847	0.17487	-0.040588	-0.13779	-0.31296	0.07431	-0.023804	-0.16159	0.003815	-0.040436	-0.003052	-0.015869	0.007172	0.005798	0.014343	0.034332	-0.004883	-0.00412
18.96	-0.006561	-0.14236	0.074158	0.018463	0.035095	0.037689	0.17593	-0.012665	-0.097046	0.159	0.012665	-0.027466	-0.06424	-0.31158	0.37994	0.21332	-0.028381	-0.10407	-0.17792	0.020447	0.032654	-0.048218	-0.039215	-0.039825	0.011902	-0.013123	-0.022583	0.005035	-0.44357	0.043335	-0.00473	-0.007019
18.961	0.001373	-0.095062	-0.002136	0.018921	0.033264	0.005646	0.097809	-0.003052	-0.081482	-0.11444	-0.018311	-0.015106	-0.034485	0.16022	0.065155	0.035706	-0.028076	-0.092621	0.32181	-0.12528	0.01297	-0.044098	-0.05722	-0.041962	0.019226	-0.014343	0.019836	0.015564	-0.36148	-0.000458	-0.003052	-0.019531
18.962	0.001831	-0.099335	-0.10223	0.032654	0.012665	0.009918	0.10162	-0.00061	-0.04715	-0.11169	0.14526	-0.007477	-0.011902	0.26703	0.91309	-1.7471	-0.012817	-0.082092	0.35095	-0.12772	-0.004883	-0.043335	-0.029449	-0.018005	0.007629	-0.013123	0.1239	0.007324	-0.35446	-0.02243	-0.002747	-0.014801
18.963	0.007019	-0.11627	-0.033112	0.010529	0.012512	-0.01236	0.10956	0.003967	-0.03952	-0.16983	0.14481	0.007629	0.00351	0.30853	1.1255	0.52765	-0.011597	-0.084076	-0.16647	-0.069885	-0.044861	-0.079193	-0.022736	-0.014648	0.031586	-0.013885	0.12222	0.010834	0.17242	-0.011444	-0.007782	-0.010529
18.964	0.003815	-0.12711	0.018616	0.001831	0.032806	-0.010529	0.10574	-0.001678	-0.01236	-0.14694	0.017853	0.015717	0.007324	0.26077	-0.02533	1.4619	0	-0.112	0.15579	-0.11459	-0.078735	-0.033264	-0.031586	-0.046539	0.025787	-0.014191	0.10635	0.011292	0.28854	-0.012054	-0.005188	-0.007629
18.965	0.008545	-0.12375	0	-0.006409	0.049591	0.006866	0.072479	0.005798	-0.012817	-0.12909	0.066833	-0.027924	0.070953	0.015869	-0.54367	-0.32928	0.005341	-0.10101	0.27298	-0.073242	-0.11765	0.026093	-0.025024	-0.04837	0.010071	-0.011444	0.1326	0.013275	0.3096	0.011749	-0.007782	-0.01709
18.966	0.001526	-0.14664	-0.047913	-0.005493	0.043335	0.003357	0.11368	0.000763	-0.027466	-0.18631	-0.074005	0.15656	0.081482	-0.35675	-0.74905	0.015259	0.008087	-0.065765	0.11902	0.02533	-0.06546	0.074921	-0.027924	-0.002289	0.018921	-0.015411	0.099182	0.014191	0.12558	-0.003357	-0.004883	0.000153
18.967	-0.002136	-0.12085	-0.078278	-0.012207	0.0354	0.016937	0.13611	-0.002136	-0.02243	-0.17212	-0.12116	0.009155	0.002899	-0.53436	-0.89691	0.17273	0.005188	-0.083771	-0.25406	0.14023	0.14587	0.034637	-0.005035	-0.077515	0.014496	-0.016479	0.025635	0.012512	-0.000458	0.031738	-0.004425	-0.015717
18.968	0.004578	-0.11276	-0.023193	-0.003662	0.026855	0.004272	0.15106	-0.007477	-0.005798	-0.15915	-0.11795	-0.11154	-0.019379	-0.29022	-0.70679	0.001373	0.016022	0.001678	-0.45776	0.14557	0.0737	-0.062866	-0.054321	-0.075073	0.014954	-0.012817	0.07431	0.006256	-0.18723	0.024719	-0.005188	-0.012054
18.969	0.008545	-0.10162	0.001984	-0.020905	0.028992	-0.016174	0.12283	-0.010376	0.038147	-0.10071	-0.097961	0.077057	-0.034943	-0.55466	-0.30243	-0.19104	0.028992	-0.026093	-0.47302	0.06134	-0.000916	-0.10361	-0.072784	-0.10819	0.025482	-0.016022	0.11948	0.006714	-0.1326	0.006409	-0.002289	0.000916
18.97	-0.006714	-0.07431	0.045013	-0.011597	0.025024	-0.010071	0.16541	0.002136	-0.030823	0.044861	-0.096741	-0.000305	-0.044861	-0.19989	0.21957	-0.089264	0.06134	-0.039978	0.010376	-0.059052	-0.16113	0.002289	-0.095825	-0.11185	0.040894	-0.007019	0.066833	0.008392	-0.092621	-0.061646	-0.007477	-0.003815
18.971	0.001831	-0.039215	-0.0354	0.013885	0.022583	-0.000305	0.15579	0.005646	-0.046997	0.16052	-0.081482	-0.06134	-0.031281	0.26184	0.14832	-0.18951	0.078735	-0.081024	0.55328	-0.10483	-0.18631	0.036926	-0.10681	-0.12039	0.027618	0.002289	-0.12756	0.013123	-0.067596	-0.11047	-0.013123	-0.00412
18.972	-0.003815	-0.029755	-0.103	0.027161	0.024872	-0.026093	0.15732	0.003052	-0.044098	0.074463	-0.059509	-0.1294	-0.17792	0.3183	0.19638	-0.02182	0.06134	-0.15335	0.70877	-0.10162	-0.054169	-0.074615	-0.10757	-0.13367	0.027771	0.005798	-0.1294	0.010529	-0.67169	-0.13489	-0.007019	0.003357
